<svg width="57" height="57" viewBox="0 0 57 57" fill="none" xmlns="http://www.w3.org/2000/svg">
<rect opacity="0.3" x="8.7843" y="8.5" width="39" height="39" stroke="#BA9775"/>
<mask id="path-2-outside-1_15_1977" maskUnits="userSpaceOnUse" x="19" y="14" width="17" height="29" fill="black">
<rect fill="white" x="19" y="14" width="17" height="29"/>
<path d="M22.0688 17.8023C21.8643 19.3568 21.3325 22.1386 20.8825 24C19.3075 30.3 19.7575 32.6932 22.9075 34.8614C23.9916 35.6386 24.0325 36.1909 23.0507 38.175C22.212 39.8727 22.1711 40.3636 22.8052 41.0795C23.337 41.7136 24.8711 42 27.6529 42C30.4347 42 31.9688 41.7136 32.5211 41.0795C33.1347 40.3636 33.0938 39.8727 32.2552 38.175C31.2529 36.1091 31.2938 35.7 32.6234 34.7182C34.0347 33.6545 34.8938 32.3455 35.2007 30.75C35.5075 29.1955 35.3847 28.0091 34.4847 24.3068C33.7075 21.0955 33.2779 18.6614 33.0529 16.4727L32.9097 15H27.6734H22.4166L22.0688 17.8023ZM32.8893 17.5773C33.1552 20.175 33.1552 20.1545 34.1166 24.2659C35.5075 30.3 34.8325 32.9795 31.437 34.6568C28.512 36.0886 24.0734 35.5364 22.0075 33.4705C20.862 32.325 20.6166 31.6705 20.5347 29.4205C20.4734 27.6205 20.5552 27.0068 21.2097 24.2455C21.5984 22.5273 22.0688 20.0932 22.2325 18.825C22.4166 17.5773 22.6007 16.2273 22.662 15.8591L22.7643 15.2045L27.7143 15.2455L32.6643 15.3068L32.8893 17.5773ZM27.6529 35.925C28.8393 35.925 30.0461 35.8227 30.3734 35.7C30.9052 35.475 30.9257 35.4955 30.9257 36.1091C30.9257 36.4568 31.2529 37.3159 31.6416 38.0318C32.4393 39.4636 32.5416 40.3432 31.9688 40.8545C31.0484 41.6932 24.2575 41.6932 23.337 40.8545C22.7643 40.3432 22.8666 39.4636 23.6643 38.0318C24.0529 37.3159 24.3802 36.4568 24.3802 36.1091C24.3802 35.4955 24.4007 35.475 24.9529 35.7C25.2597 35.8227 26.4666 35.925 27.6529 35.925Z"/>
</mask>
<path d="M22.0688 17.8023C21.8643 19.3568 21.3325 22.1386 20.8825 24C19.3075 30.3 19.7575 32.6932 22.9075 34.8614C23.9916 35.6386 24.0325 36.1909 23.0507 38.175C22.212 39.8727 22.1711 40.3636 22.8052 41.0795C23.337 41.7136 24.8711 42 27.6529 42C30.4347 42 31.9688 41.7136 32.5211 41.0795C33.1347 40.3636 33.0938 39.8727 32.2552 38.175C31.2529 36.1091 31.2938 35.7 32.6234 34.7182C34.0347 33.6545 34.8938 32.3455 35.2007 30.75C35.5075 29.1955 35.3847 28.0091 34.4847 24.3068C33.7075 21.0955 33.2779 18.6614 33.0529 16.4727L32.9097 15H27.6734H22.4166L22.0688 17.8023ZM32.8893 17.5773C33.1552 20.175 33.1552 20.1545 34.1166 24.2659C35.5075 30.3 34.8325 32.9795 31.437 34.6568C28.512 36.0886 24.0734 35.5364 22.0075 33.4705C20.862 32.325 20.6166 31.6705 20.5347 29.4205C20.4734 27.6205 20.5552 27.0068 21.2097 24.2455C21.5984 22.5273 22.0688 20.0932 22.2325 18.825C22.4166 17.5773 22.6007 16.2273 22.662 15.8591L22.7643 15.2045L27.7143 15.2455L32.6643 15.3068L32.8893 17.5773ZM27.6529 35.925C28.8393 35.925 30.0461 35.8227 30.3734 35.7C30.9052 35.475 30.9257 35.4955 30.9257 36.1091C30.9257 36.4568 31.2529 37.3159 31.6416 38.0318C32.4393 39.4636 32.5416 40.3432 31.9688 40.8545C31.0484 41.6932 24.2575 41.6932 23.337 40.8545C22.7643 40.3432 22.8666 39.4636 23.6643 38.0318C24.0529 37.3159 24.3802 36.4568 24.3802 36.1091C24.3802 35.4955 24.4007 35.475 24.9529 35.7C25.2597 35.8227 26.4666 35.925 27.6529 35.925Z" fill="#BA9775"/>
<path d="M22.0688 17.8023L22.2671 17.8284L22.2673 17.8269L22.0688 17.8023ZM20.8825 24L21.0765 24.0485L21.0769 24.047L20.8825 24ZM22.9075 34.8614L23.024 34.6988L23.0209 34.6966L22.9075 34.8614ZM23.0507 38.175L22.8714 38.0863L22.8713 38.0864L23.0507 38.175ZM22.8052 41.0795L22.9585 40.951L22.9549 40.9469L22.8052 41.0795ZM32.5211 41.0795L32.6719 41.2109L32.673 41.2097L32.5211 41.0795ZM32.2552 38.175L32.0753 38.2623L32.0759 38.2636L32.2552 38.175ZM32.6234 34.7182L32.7422 34.8791L32.7438 34.8779L32.6234 34.7182ZM35.2007 30.75L35.0044 30.7113L35.0043 30.7122L35.2007 30.75ZM34.4847 24.3068L34.2904 24.3539L34.2904 24.3541L34.4847 24.3068ZM33.0529 16.4727L32.8539 16.4921L32.854 16.4932L33.0529 16.4727ZM32.9097 15L33.1088 14.9806L33.0912 14.8H32.9097V15ZM22.4166 15V14.8H22.2398L22.2181 14.9754L22.4166 15ZM32.8893 17.5773L32.6903 17.597L32.6903 17.5976L32.8893 17.5773ZM34.1166 24.2659L34.3115 24.221L34.3113 24.2204L34.1166 24.2659ZM31.437 34.6568L31.525 34.8365L31.5256 34.8361L31.437 34.6568ZM20.5347 29.4205L20.3349 29.4273L20.3349 29.4277L20.5347 29.4205ZM21.2097 24.2455L21.4044 24.2916L21.4048 24.2896L21.2097 24.2455ZM22.2325 18.825L22.0346 18.7958L22.0341 18.7994L22.2325 18.825ZM22.662 15.8591L22.8593 15.892L22.8596 15.89L22.662 15.8591ZM22.7643 15.2045L22.7659 15.0046L22.5933 15.0031L22.5667 15.1737L22.7643 15.2045ZM27.7143 15.2455L27.7168 15.0455L27.7159 15.0455L27.7143 15.2455ZM32.6643 15.3068L32.8633 15.2871L32.8457 15.1091L32.6668 15.1068L32.6643 15.3068ZM30.3734 35.7L30.4437 35.8874L30.4513 35.8842L30.3734 35.7ZM31.6416 38.0318L31.4658 38.1272L31.4669 38.1292L31.6416 38.0318ZM31.9688 40.8545L31.8356 40.7053L31.8341 40.7067L31.9688 40.8545ZM23.337 40.8545L23.4717 40.7067L23.4702 40.7054L23.337 40.8545ZM23.6643 38.0318L23.839 38.1292L23.8401 38.1272L23.6643 38.0318ZM24.9529 35.7L24.8775 35.8852L24.8787 35.8857L24.9529 35.7ZM21.8705 17.7762C21.6671 19.3224 21.1367 22.0972 20.6881 23.953L21.0769 24.047C21.5282 22.1801 22.0615 19.3912 22.2671 17.8284L21.8705 17.7762ZM20.6884 23.9515C19.9005 27.1032 19.6085 29.3137 19.9265 31.0168C20.2484 32.7406 21.1899 33.9219 22.7941 35.0261L23.0209 34.6966C21.4751 33.6326 20.6166 32.5332 20.3197 30.9434C20.019 29.3329 20.2894 27.1968 21.0765 24.0485L20.6884 23.9515ZM22.7909 35.0239C23.3202 35.4034 23.5355 35.6872 23.554 36.0751C23.5638 36.2814 23.519 36.5336 23.4057 36.8648C23.2926 37.1953 23.1157 37.5927 22.8714 38.0863L23.2299 38.2637C23.4766 37.7653 23.6626 37.3495 23.7842 36.9942C23.9055 36.6395 23.9667 36.3331 23.9536 36.0561C23.926 35.4776 23.5788 35.0966 23.024 34.6988L22.7909 35.0239ZM22.8713 38.0864C22.4543 38.9307 22.2158 39.5107 22.1764 39.9786C22.1343 40.4773 22.3178 40.8309 22.6555 41.2122L22.9549 40.9469C22.6585 40.6123 22.5454 40.3625 22.5749 40.0123C22.6071 39.6313 22.8084 39.117 23.23 38.2636L22.8713 38.0864ZM22.652 41.2081C22.9648 41.5811 23.5414 41.8215 24.3482 41.9741C25.164 42.1284 26.2574 42.2 27.6529 42.2V41.8C26.2666 41.8 25.2021 41.7285 24.4225 41.581C23.6337 41.4319 23.1774 41.2121 22.9584 40.951L22.652 41.2081ZM27.6529 42.2C29.0485 42.2 30.1418 42.1283 30.9601 41.9741C31.7702 41.8214 32.3495 41.5811 32.6719 41.2109L32.3703 40.9482C32.1405 41.212 31.6766 41.432 30.8861 41.581C30.1038 41.7285 29.0392 41.8 27.6529 41.8V42.2ZM32.673 41.2097C33.0003 40.8278 33.1769 40.4745 33.1319 39.9775C33.0897 39.5104 32.8517 38.931 32.4345 38.0864L32.0759 38.2636C32.4973 39.1167 32.6991 39.6317 32.7336 40.0135C32.7654 40.3653 32.6556 40.6154 32.3693 40.9494L32.673 41.2097ZM32.4351 38.0877C32.185 37.5721 32.0044 37.1688 31.8924 36.8373C31.7803 36.5056 31.7425 36.2617 31.7638 36.0611C31.8047 35.6746 32.0726 35.3735 32.7422 34.8791L32.5046 34.5573C31.8446 35.0446 31.4273 35.4391 31.366 36.019C31.3361 36.3016 31.3929 36.6087 31.5135 36.9654C31.6341 37.3224 31.8243 37.745 32.0753 38.2623L32.4351 38.0877ZM32.7438 34.8779C34.1901 33.7879 35.0798 32.4373 35.3971 30.7878L35.0043 30.7122C34.7078 32.2536 33.8794 33.5212 32.503 34.5585L32.7438 34.8779ZM35.3969 30.7887C35.713 29.1869 35.5792 27.9622 34.6791 24.2596L34.2904 24.3541C35.1903 28.056 35.3019 29.204 35.0044 30.7113L35.3969 30.7887ZM34.6791 24.2598C33.9034 21.0546 33.4757 18.6296 33.2519 16.4523L32.854 16.4932C33.0801 18.6931 33.5116 21.1364 34.2904 24.3539L34.6791 24.2598ZM33.252 16.4534L33.1088 14.9806L32.7107 15.0194L32.8539 16.4921L33.252 16.4534ZM32.9097 14.8H27.6734V15.2H32.9097V14.8ZM27.6734 14.8H22.4166V15.2H27.6734V14.8ZM22.2181 14.9754L21.8704 17.7776L22.2673 17.8269L22.615 15.0246L22.2181 14.9754ZM32.6903 17.5976C32.9575 20.2076 32.9596 20.1965 33.9218 24.3114L34.3113 24.2204C33.3508 20.1126 33.3529 20.1424 33.0883 17.5569L32.6903 17.5976ZM33.9217 24.3108C34.6159 27.3225 34.7846 29.4609 34.378 31.0455C33.9764 32.6101 33.007 33.6582 31.3484 34.4775L31.5256 34.8361C33.2625 33.9781 34.3283 32.8479 34.7654 31.1449C35.1974 29.4619 35.0081 27.2434 34.3115 24.221L33.9217 24.3108ZM31.3491 34.4772C29.9286 35.1725 28.1285 35.3904 26.425 35.1768C24.7196 34.963 23.1407 34.3208 22.1489 33.329L21.8661 33.6119C22.9402 34.686 24.6135 35.3529 26.3752 35.5737C28.1388 35.7948 30.0204 35.5729 31.525 34.8365L31.3491 34.4772ZM22.1489 33.329C21.5846 32.7647 21.2603 32.3392 21.0601 31.791C20.8571 31.2352 20.7755 30.5371 20.7346 29.4132L20.3349 29.4277C20.3758 30.5538 20.4578 31.3079 20.6844 31.9283C20.9137 32.5562 21.2849 33.0307 21.8661 33.6119L22.1489 33.329ZM20.7346 29.4136C20.7041 28.518 20.7096 27.9271 20.8021 27.2194C20.8952 26.5075 21.0768 25.6733 21.4044 24.2916L21.0151 24.1993C20.6881 25.579 20.5016 26.4323 20.4055 27.1675C20.3088 27.907 20.304 28.5229 20.3349 29.4273L20.7346 29.4136ZM21.4048 24.2896C21.794 22.569 22.266 20.1279 22.4308 18.8506L22.0341 18.7994C21.8717 20.0585 21.4028 22.4856 21.0147 24.2013L21.4048 24.2896ZM22.4303 18.8542C22.6153 17.6008 22.7983 16.2581 22.8593 15.892L22.4647 15.8262C22.403 16.1965 22.2179 17.5537 22.0346 18.7958L22.4303 18.8542ZM22.8596 15.89L22.9619 15.2354L22.5667 15.1737L22.4644 15.8282L22.8596 15.89ZM22.7626 15.4045L27.7126 15.4454L27.7159 15.0455L22.7659 15.0046L22.7626 15.4045ZM27.7118 15.4454L32.6618 15.5068L32.6668 15.1068L27.7168 15.0455L27.7118 15.4454ZM32.4653 15.3265L32.6903 17.597L33.0883 17.5575L32.8633 15.2871L32.4653 15.3265ZM27.6529 36.125C28.2513 36.125 28.8552 36.0992 29.3519 36.0578C29.6002 36.0371 29.8235 36.0124 30.007 35.9847C30.186 35.9576 30.3407 35.9259 30.4436 35.8873L30.3032 35.5127C30.2424 35.5355 30.1236 35.5625 29.9472 35.5892C29.7753 35.6152 29.5613 35.639 29.3187 35.6592C28.8336 35.6996 28.2409 35.725 27.6529 35.725V36.125ZM30.4513 35.8842C30.5874 35.8266 30.6747 35.7919 30.7348 35.7762C30.8044 35.7579 30.773 35.7831 30.729 35.7501C30.692 35.7223 30.7056 35.696 30.7156 35.7786C30.7241 35.849 30.7257 35.9525 30.7257 36.1091H31.1257C31.1257 35.9589 31.1247 35.8297 31.1127 35.7307C31.1022 35.6439 31.0775 35.5115 30.969 35.4301C30.8534 35.3434 30.7171 35.3673 30.6333 35.3893C30.54 35.4137 30.4252 35.4609 30.2955 35.5158L30.4513 35.8842ZM30.7257 36.1091C30.7257 36.3232 30.8206 36.6558 30.9506 37.0026C31.0843 37.3592 31.2672 37.7613 31.4658 38.1272L31.8173 37.9364C31.6273 37.5864 31.4522 37.201 31.3251 36.8622C31.1944 36.5135 31.1257 36.2427 31.1257 36.1091H30.7257ZM31.4669 38.1292C31.8616 38.8376 32.0713 39.3879 32.1205 39.8114C32.1682 40.2231 32.0641 40.5014 31.8356 40.7054L32.102 41.0037C32.4463 40.6963 32.5774 40.2792 32.5178 39.7653C32.4595 39.2632 32.2193 38.6579 31.8163 37.9345L31.4669 38.1292ZM31.8341 40.7067C31.7554 40.7785 31.5872 40.8602 31.3166 40.9374C31.0536 41.0124 30.7196 41.0764 30.3346 41.1281C29.5654 41.2314 28.6107 41.2835 27.6529 41.2835C26.6951 41.2835 25.7405 41.2314 24.9712 41.1281C24.5863 41.0764 24.2522 41.0124 23.9893 40.9374C23.7186 40.8602 23.5505 40.7785 23.4717 40.7067L23.2023 41.0024C23.3537 41.1403 23.5991 41.242 23.8796 41.322C24.1678 41.4043 24.5225 41.4714 24.918 41.5245C25.7097 41.6308 26.6829 41.6835 27.6529 41.6835C28.623 41.6835 29.5962 41.6308 30.3879 41.5245C30.7834 41.4714 31.1381 41.4043 31.4263 41.322C31.7068 41.242 31.9522 41.1403 32.1035 41.0024L31.8341 40.7067ZM23.4702 40.7054C23.2418 40.5014 23.1376 40.2231 23.1854 39.8114C23.2345 39.3879 23.4443 38.8376 23.839 38.1292L23.4896 37.9345C23.0866 38.6579 22.8463 39.2632 22.7881 39.7653C22.7285 40.2792 22.8595 40.6963 23.2038 41.0037L23.4702 40.7054ZM23.8401 38.1272C24.0387 37.7613 24.2215 37.3592 24.3553 37.0026C24.4853 36.6558 24.5802 36.3232 24.5802 36.1091H24.1802C24.1802 36.2427 24.1115 36.5135 23.9807 36.8622C23.8536 37.201 23.6785 37.5864 23.4885 37.9364L23.8401 38.1272ZM24.5802 36.1091C24.5802 35.9523 24.5818 35.8493 24.5905 35.7794C24.6006 35.6981 24.6141 35.725 24.5768 35.752C24.5353 35.7821 24.5082 35.7581 24.5814 35.7766C24.6449 35.7927 24.7363 35.8277 24.8775 35.8852L25.0284 35.5148C24.8934 35.4598 24.7751 35.413 24.6795 35.3888C24.5935 35.3671 24.4578 35.3444 24.3422 35.4281C24.2307 35.5088 24.2045 35.6418 24.1936 35.7299C24.1812 35.8294 24.1802 35.959 24.1802 36.1091H24.5802ZM24.8787 35.8857C24.9785 35.9257 25.1316 35.9577 25.3071 35.9846C25.4878 36.0124 25.7094 36.0371 25.9564 36.0578C26.4507 36.0992 27.0546 36.125 27.6529 36.125V35.725C27.0649 35.725 26.4722 35.6996 25.9898 35.6592C25.7485 35.639 25.5366 35.6152 25.3678 35.5892C25.1936 35.5625 25.0807 35.5357 25.0272 35.5143L24.8787 35.8857Z" fill="#BA9775" mask="url(#path-2-outside-1_15_1977)"/>
<rect x="28.2843" y="1.06066" width="38.5" height="38.5" transform="rotate(45 28.2843 1.06066)" stroke="#BA9775" stroke-width="1.5"/>
</svg>
